<svg width="412" height="102" viewBox="0 0 412 102" fill="none" xmlns="http://www.w3.org/2000/svg">
<path d="M3.56412 100C3.56412 100.552 4.01183 101 4.56412 101H69.4212C81.1936 101 89.9892 98.0194 95.8495 92.6726C101.722 87.3144 104.509 79.7065 104.509 70.7508C104.509 61.8744 101.726 53.8371 95.9615 48.016C90.1919 42.1899 81.5431 38.6923 70.0246 38.6923H36.0877C31.8525 38.6923 29.2467 38.0156 27.714 36.919C26.2617 35.8799 25.6246 34.3506 25.6246 32.1538C25.6246 29.8735 26.2665 28.3526 27.7083 27.3362C29.2386 26.2574 31.8427 25.6154 36.0877 25.6154H99.4365C99.9888 25.6154 100.437 25.1677 100.437 24.6154V2C100.437 1.44772 99.9888 1 99.4365 1H36.0877C24.3153 1 15.5197 3.98059 9.65938 9.32742C3.78663 14.6856 1 22.2935 1 31.2492C1 40.1256 3.78276 48.1629 9.54742 53.984C15.317 59.8101 23.9658 63.3077 35.4844 63.3077H69.4212C73.6662 63.3077 76.2703 63.9497 77.8006 65.0285C79.2424 66.0449 79.8843 67.5658 79.8843 69.8462C79.8843 72.0429 79.2472 73.5722 77.7949 74.6113C76.2623 75.7079 73.6564 76.3846 69.4212 76.3846H4.56412C4.01183 76.3846 3.56412 76.8323 3.56412 77.3846V100ZM114.635 100C114.635 100.552 115.083 101 115.635 101H139.768C140.321 101 140.768 100.552 140.768 100V2C140.768 1.44772 140.321 1 139.768 1H115.635C115.083 1 114.635 1.44772 114.635 2V100ZM154.269 59.2923C154.269 59.7071 154.525 60.0788 154.912 60.2266L223.691 86.4605C223.998 86.5777 224.344 86.5363 224.615 86.3497C224.885 86.163 225.047 85.8551 225.047 85.5261V69.3938C225.047 68.9795 224.792 68.6081 224.405 68.4599L170.141 47.6863L224.403 27.0578C224.791 26.9103 225.047 26.5383 225.047 26.1231V9.99077C225.047 9.6618 224.885 9.35387 224.615 9.16725C224.344 8.98063 223.998 8.93919 223.691 9.05643L154.912 35.2903C154.525 35.4381 154.269 35.8098 154.269 36.2246V59.2923ZM253.857 62.3077C253.857 62.86 254.304 63.3077 254.857 63.3077H293.922C298.749 63.3077 302.092 64.0546 304.193 65.25C306.231 66.4094 307.1 67.9792 307.1 69.8462C307.1 71.7168 306.266 73.2777 304.151 74.4341C301.956 75.6338 298.386 76.3846 293.017 76.3846H238.115C237.562 76.3846 237.115 76.8323 237.115 77.3846V100C237.115 100.552 237.562 101 238.115 101H295.43C309.426 101 318.922 97.962 324.916 92.4434C330.929 86.9074 333.233 79.0489 333.233 69.8462C333.233 61.1893 330.07 54.4776 324.561 49.5168C327.971 45.0498 329.914 39.3294 329.914 32.1538C329.914 22.9434 327.531 15.0889 321.522 9.55662C315.531 4.0405 306.114 1 292.413 1H238.115C237.562 1 237.115 1.44772 237.115 2V24.6154C237.115 25.1677 237.562 25.6154 238.115 25.6154H293.168C296.904 25.6154 299.583 26.351 301.297 27.5156C302.967 28.6497 303.782 30.2252 303.782 32.1538C303.782 34.1476 303.105 35.6943 301.501 36.7946C299.824 37.9451 297.012 38.6923 292.564 38.6923H254.857C254.304 38.6923 253.857 39.14 253.857 39.6923V62.3077ZM410.356 60.2266C410.744 60.0788 411 59.7071 411 59.2923V36.2246C411 35.8098 410.744 35.4381 410.356 35.2903L341.578 9.05643C341.27 8.93919 340.925 8.98063 340.654 9.16725C340.383 9.35387 340.221 9.6618 340.221 9.99077V26.1231C340.221 26.5374 340.477 26.9088 340.864 27.057L395.128 47.8306L340.866 68.4591C340.478 68.6067 340.221 68.9787 340.221 69.3938V85.5261C340.221 85.8551 340.383 86.163 340.654 86.3497C340.925 86.5363 341.27 86.5777 341.578 86.4605L410.356 60.2266Z" fill="url(#paint0_linear_8635_157635)" stroke="black" stroke-width="2" stroke-linejoin="round"/>
<defs>
<linearGradient id="paint0_linear_8635_157635" x1="-31.456" y1="24.932" x2="68.5985" y2="311.516" gradientUnits="userSpaceOnUse">
<stop stop-color="#FEE8FF"/>
<stop offset="0.338011" stop-color="#E0E4FF"/>
<stop offset="0.550682" stop-color="#EDFCFF"/>
<stop offset="1" stop-color="#E7E7E7"/>
</linearGradient>
</defs>
</svg>
